HIERARCHY
ROOT hip
{
  OFFSET 0 0 0
  CHANNELS 6 Xposition Yposition Zposition Zrotation Yrotation Xrotation
  JOINT abdomen
  {
    OFFSET 0 20.6881 -0.73152
    CHANNELS 3 Zrotation Xrotation Yrotation
    JOINT chest
    {
      OFFSET 0 11.7043 -0.48768
      CHANNELS 3 Zrotation Xrotation Yrotation
      JOINT neck
      {
        OFFSET 0 22.1894 -2.19456
        CHANNELS 3 Zrotation Xrotation Yrotation
        JOINT head
        {
          OFFSET -0.24384 7.07133 1.2192
          CHANNELS 3 Zrotation Xrotation Yrotation
          JOINT leftEye
          {
            OFFSET 4.14528 8.04674 8.04672
            CHANNELS 3 Zrotation Xrotation Yrotation
            End Site
            {
              OFFSET 1 0 0
            }
          }
          JOINT rightEye
          {
            OFFSET -3.6576 8.04674 8.04672
            CHANNELS 3 Zrotation Xrotation Yrotation
            End Site
            {
              OFFSET 1 0 0
            }
          }
        }
      }
      JOINT rCollar
      {
        OFFSET -2.68224 19.2634 -4.8768
        CHANNELS 3 Zrotation Xrotation Yrotation
        JOINT rShldr
        {
          OFFSET -8.77824 -1.95073 1.46304
          CHANNELS 3 Zrotation Xrotation Yrotation
          JOINT rForeArm
          {
            OFFSET -28.1742 -1.7115 0.48768
            CHANNELS 3 Zrotation Xrotation Yrotation
            JOINT rHand
            {
              OFFSET -22.5879 0.773209 7.07136
              CHANNELS 3 Zrotation Xrotation Yrotation
              JOINT rThumb1
              {
                OFFSET -1.2192 -0.487915 3.41376
                CHANNELS 3 Zrotation Xrotation Yrotation
                JOINT rThumb2
                {
                  OFFSET -3.37035 -0.52449 3.41376
                  CHANNELS 3 Zrotation Xrotation Yrotation
                  End Site
                  {
                    OFFSET -1.78271 -1.18214 1.43049
                  }
                }
              }
              JOINT rIndex1
              {
                OFFSET -7.75947 0.938293 5.60832
                CHANNELS 3 Zrotation Xrotation Yrotation
                JOINT rIndex2
                {
                  OFFSET -2.54057 -0.884171 1.56538
                  CHANNELS 3 Zrotation Xrotation Yrotation
                  End Site
                  {
                    OFFSET -1.62519 -0.234802 1.16502
                  }
                }
              }
              JOINT rMid1
              {
                OFFSET -8.24714 1.18213 3.41376
                CHANNELS 3 Zrotation Xrotation Yrotation
                JOINT rMid2
                {
                  OFFSET -3.10165 -0.590103 1.0647
                  CHANNELS 3 Zrotation Xrotation Yrotation
                  End Site
                  {
                    OFFSET -2.48547 -0.328903 0.83742
                  }
                }
              }
              JOINT rRing1
              {
                OFFSET -8.82822 0.546677 1.51678
                CHANNELS 3 Zrotation Xrotation Yrotation
                JOINT rRing2
                {
                  OFFSET -2.60934 -0.819778 -0.0198488
                  CHANNELS 3 Zrotation Xrotation Yrotation
                  End Site
                  {
                    OFFSET -2.33842 -0.294052 0.168128
                  }
                }
              }
              JOINT rPinky1
              {
                OFFSET -8.27202 -0.0477905 -0.4584
                CHANNELS 3 Zrotation Xrotation Yrotation
                JOINT rPinky2
                {
                  OFFSET -1.82734 -0.647385 -0.700984
                  CHANNELS 3 Zrotation Xrotation Yrotation
                  End Site
                  {
                    OFFSET -1.69225 -0.51767 -0.607171
                  }
                }
              }
            }
          }
        }
      }
      JOINT lCollar
      {
        OFFSET 2.68224 19.2634 -4.8768
        CHANNELS 3 Zrotation Xrotation Yrotation
        JOINT lShldr
        {
          OFFSET 8.77824 -1.95073 1.46304
          CHANNELS 3 Zrotation Xrotation Yrotation
          JOINT lForeArm
          {
            OFFSET 28.1742 -1.7115 0.48768
            CHANNELS 3 Zrotation Xrotation Yrotation
            JOINT lHand
            {
              OFFSET 22.5879 0.773209 7.07136
              CHANNELS 3 Zrotation Xrotation Yrotation
              JOINT lThumb1
              {
                OFFSET 1.2192 -0.487915 3.41376
                CHANNELS 3 Zrotation Xrotation Yrotation
                JOINT lThumb2
                {
                  OFFSET 3.37035 -0.52449 3.41376
                  CHANNELS 3 Zrotation Xrotation Yrotation
                  End Site
                  {
                    OFFSET 1.78271 -1.18214 1.43049
                  }
                }
              }
              JOINT lIndex1
              {
                OFFSET 7.75947 0.938293 5.60832
                CHANNELS 3 Zrotation Xrotation Yrotation
                JOINT lIndex2
                {
                  OFFSET 2.54057 -0.884171 1.56538
                  CHANNELS 3 Zrotation Xrotation Yrotation
                  End Site
                  {
                    OFFSET 1.62519 -0.234802 1.16502
                  }
                }
              }
              JOINT lMid1
              {
                OFFSET 8.24714 1.18213 3.41376
                CHANNELS 3 Zrotation Xrotation Yrotation
                JOINT lMid2
                {
                  OFFSET 3.10165 -0.590103 1.0647
                  CHANNELS 3 Zrotation Xrotation Yrotation
                  End Site
                  {
                    OFFSET 2.48547 -0.328903 0.83742
                  }
                }
              }
              JOINT lRing1
              {
                OFFSET 8.82822 0.546677 1.51678
                CHANNELS 3 Zrotation Xrotation Yrotation
                JOINT lRing2
                {
                  OFFSET 2.60934 -0.819778 -0.0198488
                  CHANNELS 3 Zrotation Xrotation Yrotation
                  End Site
                  {
                    OFFSET 2.33842 -0.294052 0.168128
                  }
                }
              }
              JOINT lPinky1
              {
                OFFSET 8.27202 -0.0477905 -0.4584
                CHANNELS 3 Zrotation Xrotation Yrotation
                JOINT lPinky2
                {
                  OFFSET 1.82734 -0.647385 -0.700984
                  CHANNELS 3 Zrotation Xrotation Yrotation
                  End Site
                  {
                    OFFSET 1.69225 -0.51767 -0.607171
                  }
                }
              }
            }
          }
        }
      }
    }
  }
  JOINT rButtock
  {
    OFFSET -8.77824 4.35084 1.2192
    CHANNELS 3 Zrotation Xrotation Yrotation
    JOINT rThigh
    {
      OFFSET 0 -1.70687 -2.19456
      CHANNELS 3 Zrotation Xrotation Yrotation
      JOINT rShin
      {
        OFFSET 0 -36.8199 0.73152
        CHANNELS 3 Zrotation Xrotation Yrotation
        JOINT rFoot
        {
          OFFSET 0.73152 -45.1104 -5.12064
          CHANNELS 3 Zrotation Xrotation Yrotation
          End Site
          {
            OFFSET -1.1221 -3.69964 12.103
          }
        }
      }
    }
  }
  JOINT lButtock
  {
    OFFSET 8.77824 4.35084 1.2192
    CHANNELS 3 Zrotation Xrotation Yrotation
    JOINT lThigh
    {
      OFFSET 0 -1.70687 -2.19456
      CHANNELS 3 Zrotation Xrotation Yrotation
      JOINT lShin
      {
        OFFSET 0 -36.8199 0.73152
        CHANNELS 3 Zrotation Xrotation Yrotation
        JOINT lFoot
        {
          OFFSET -0.73152 -45.1104 -5.12064
          CHANNELS 3 Zrotation Xrotation Yrotation
          End Site
          {
            OFFSET 1.1221 -3.69964 12.103
          }
        }
      }
    }
  }
}
MOTION
Frames:	4
Frame Time:	0.03333
48.778328113257885 -1.6726676374673843 -139.32898752391338 -121.98087310791016 -78.19746398925781 -122.11396789550781 161.98330688476562 -54.44280242919922 78.02315521240234 -151.52342224121094 47.294498443603516 -37.613807678222656 -141.5921630859375 6.343691825866699 -134.78321838378906 24.695384979248047 27.438762664794922 63.39345169067383 96.24652862548828 28.56692886352539 129.54859924316406 47.70847702026367 20.03118896484375 1.5549688339233398 -95.08151245117188 37.74575424194336 -46.822486877441406 86.72269439697266 -35.61317825317383 -49.616825103759766 -18.375707626342773 -48.64889144897461 -115.59137725830078 -16.31104278564453 23.36931037902832 -64.73802185058594 61.68825149536133 -23.52436637878418 -59.878292083740234 103.77467346191406 -70.66338348388672 35.731266021728516 45.80888748168945 53.7839469909668 122.16010284423828 -85.4818115234375 5.44960880279541 49.413150787353516 42.31471252441406 26.10428237915039 100.08241271972656 -56.23274230957031 28.476268768310547 -35.48811340332031 101.11856079101562 -70.90538787841797 -148.91294860839844 122.20861053466797 -16.221492767333984 -76.72404479980469 -153.19107055664062 -26.10831642150879 -72.39649963378906 61.408321380615234 -65.18228149414062 -121.80235290527344 -24.92392921447754 -55.19928741455078 108.75812530517578 -15.824164390563965 38.569244384765625 99.36833953857422 -91.27706909179688 23.227046966552734 -135.2390899658203 176.93080139160156 50.67375183105469 118.0000228881836 81.64790344238281 -16.848356246948242 118.19719696044922 104.78607940673828 -61.340545654296875 -137.31881713867188 160.15464782714844 -3.8726327419281006 -78.2970962524414 133.52415466308594 55.5802001953125 170.8924560546875 -84.42460632324219 40.36262893676758 61.88161087036133 142.30589294433594 42.696407318115234 3.6831812858581543 -123.24929809570312 -51.800079345703125 -60.318416595458984 -40.76126480102539 -78.63004302978516 -111.48153686523438 18.55929183959961 42.23463821411133 -5.653494834899902 -90.45515441894531 -41.72980880737305 -122.50088500976562 33.23076629638672 14.203038215637207 7.854434967041016 -108.98836517333984 35.716583251953125 39.771697998046875 149.18487548828125 59.749488830566406 173.57720947265625 -178.41773986816406 -10.598921775817871 44.46349334716797 -1.9323580265045166 -69.73390197753906 10.680780410766602 23.5053653717041 1.7560205459594727 -72.15483856201172 59.57925033569336 52.444759368896484 92.60352325439453 -81.17240905761719 55.231910705566406 91.17524719238281
49.742306023836136 -1.7137737944722176 -142.00008194893599 -122.44090270996094 -78.34957122802734 -122.95262145996094 164.88296508789062 -52.248268127441406 80.8252182006836 -149.97885131835938 48.852291107177734 -38.566322326660156 -141.99404907226562 6.031507968902588 -133.8269500732422 23.336971282958984 27.57571792602539 64.30416107177734 94.73462677001953 30.827606201171875 130.4100799560547 46.63247299194336 21.033662796020508 0.2627219557762146 -98.85393524169922 38.637088775634766 -50.081295013427734 86.65340423583984 -35.48279571533203 -49.8509521484375 -18.67780113220215 -49.21525573730469 -116.74691009521484 -16.529788970947266 23.40882110595703 -63.0629768371582 61.042423248291016 -24.603057861328125 -58.93775177001953 98.55647277832031 -71.92124938964844 30.012428283691406 51.47814178466797 53.39613342285156 117.97016143798828 -85.82018280029297 6.551116466522217 49.67241668701172 44.37617874145508 25.69994354248047 100.12647247314453 -54.4788703918457 27.14870262145996 -37.62728500366211 98.6525650024414 -70.9261703491211 -151.39547729492188 122.5790786743164 -17.796627044677734 -78.43192291259766 -155.1932373046875 -24.55816078186035 -73.22166442871094 57.181121826171875 -65.73007202148438 -125.74068450927734 -25.22081756591797 -55.23386001586914 107.45623779296875 -13.44455337524414 37.505393981933594 98.10082244873047 -91.69269561767578 23.36707878112793 -134.9318389892578 175.42098999023438 52.51761245727539 119.77706146240234 80.97856140136719 -18.445039749145508 117.9641342163086 103.83001708984375 -59.6307487487793 -139.10922241210938 161.9037322998047 -6.374907493591309 -78.32711791992188 133.70223999023438 56.61097717285156 169.07510375976562 -83.13554382324219 40.98356628417969 62.4170036315918 138.59017944335938 42.74215316772461 3.6516060829162598 -123.56816864013672 -51.35703659057617 -61.40560531616211 -38.3480110168457 -79.13013458251953 -107.70808410644531 20.742931365966797 38.47981643676758 -7.792470455169678 -88.603759765625 -41.74125289916992 -120.80830383300781 33.27415084838867 13.821342468261719 6.241455078125 -110.18495178222656 35.84636306762695 43.58940505981445 147.22401428222656 59.84227752685547 174.398681640625 -177.0135955810547 -9.550655364990234 47.273311614990234 -4.0614118576049805 -69.43772888183594 4.325888156890869 28.071685791015625 3.8115406036376953 -74.73067474365234 59.7558708190918 54.68411636352539 92.69647979736328 -80.26629638671875 51.993125915527344 89.02252197265625
50.707887299358845 -1.7146024852991104 -144.6679750457406 -121.5858154296875 -78.69971466064453 -123.19995880126953 164.18865966796875 -53.53694152832031 81.05416107177734 -150.00857543945312 48.330596923828125 -38.317718505859375 -142.51495361328125 7.222190856933594 -133.44546508789062 23.161548614501953 28.161453247070312 64.20128631591797 95.13770294189453 32.092071533203125 131.44998168945312 45.76118850708008 20.103689193725586 0.7575416564941406 -96.87084197998047 37.96324920654297 -51.093868255615234 85.93392181396484 -34.80649948120117 -50.6944465637207 -19.378189086914062 -48.69477081298828 -117.79254913330078 -17.023874282836914 22.535232543945312 -63.23664093017578 61.873069763183594 -25.03508186340332 -58.723419189453125 99.0610580444336 -71.11283874511719 31.133346557617188 52.19704055786133 51.84918975830078 117.13055419921875 -86.04853820800781 6.892153263092041 49.27669143676758 43.93662643432617 27.513029098510742 100.96017456054688 -51.28934097290039 28.059402465820312 -38.950523376464844 100.0224609375 -70.15440368652344 -150.90603637695312 122.28656005859375 -17.56159782409668 -77.99006652832031 -152.7853546142578 -25.089696884155273 -71.91973114013672 57.94636535644531 -65.86693572998047 -125.73761749267578 -23.802967071533203 -53.86888122558594 108.20491027832031 -15.236568450927734 38.32466506958008 97.97339630126953 -91.04891204833984 24.14617919921875 -134.12997436523438 174.6916961669922 52.570125579833984 121.19166564941406 81.3471908569336 -19.296119689941406 118.3701171875 105.64004516601562 -60.49460983276367 -136.33265686035156 160.7199249267578 -5.037158966064453 -78.86115264892578 132.5634002685547 57.10862731933594 170.83570861816406 -83.44744873046875 41.0294075012207 63.519325256347656 139.9479522705078 42.24846649169922 3.6941189765930176 -121.2535171508789 -51.265098571777344 -59.602386474609375 -39.674102783203125 -78.5778579711914 -109.94732666015625 21.09067153930664 40.670379638671875 -9.043527603149414 -91.73199462890625 -42.30152893066406 -122.58174896240234 33.249168395996094 14.365306854248047 7.408560752868652 -109.71334838867188 36.044986724853516 43.59698486328125 147.07728576660156 60.12715148925781 174.6824493408203 -176.10348510742188 -8.923027038574219 45.843360900878906 -10.793066024780273 -69.48043823242188 -0.2492866814136505 27.83469009399414 3.9343161582946777 -73.170654296875 61.18687438964844 55.02214813232422 92.89298248291016 -82.44168853759766 53.41889190673828 92.55723571777344
51.66359292343259 -1.6854964196681976 -147.36509807407856 -119.94934844970703 -79.04525756835938 -122.4676284790039 161.0146484375 -56.81203842163086 79.09496307373047 -151.03428649902344 46.448753356933594 -37.353065490722656 -142.81353759765625 8.780808448791504 -133.81036376953125 24.077667236328125 28.723529815673828 63.35084915161133 96.55201721191406 31.857378005981445 132.03558349609375 45.73460388183594 18.269100189208984 2.293070077896118 -91.8427734375 36.60258483886719 -49.32176971435547 85.16919708251953 -34.132572174072266 -51.47367477416992 -20.030359268188477 -47.590118408203125 -118.16793823242188 -17.502477645874023 21.60097312927246 -64.74834442138672 63.392765045166016 -24.650842666625977 -59.03582000732422 103.045166015625 -69.0624008178711 36.14851379394531 48.81979751586914 50.44601058959961 119.26131439208984 -86.08991241455078 6.388836860656738 48.63008117675781 41.70541763305664 29.609989166259766 102.04224395751953 -49.253658294677734 30.301292419433594 -38.86308288574219 103.22852325439453 -69.26158142089844 -148.6894073486328 121.71394348144531 -16.10934829711914 -76.35710144042969 -148.34817504882812 -26.80076026916504 -69.65240478515625 62.15911865234375 -65.54518127441406 -122.72850799560547 -22.11829948425293 -52.242835998535156 109.78313446044922 -18.863502502441406 40.09176254272461 98.68296813964844 -89.89646911621094 24.86832618713379 -133.54025268554688 175.1251220703125 51.13398361206055 121.29745483398438 82.34294128417969 -19.114492416381836 119.01704406738281 108.55845642089844 -62.511940002441406 -131.81378173828125 158.3214874267578 -1.5696812868118286 -79.28616333007812 130.9838409423828 56.84352111816406 174.2140350341797 -84.70877838134766 40.500694274902344 64.22620391845703 144.13186645507812 41.87213134765625 3.9340732097625732 -118.36186218261719 -51.63741683959961 -56.75896453857422 -43.19505310058594 -77.6598129272461 -115.49652862548828 19.883092880249023 46.00502014160156 -8.5746488571167 -96.60897827148438 -42.78575134277344 -125.96712493896484 33.169246673583984 15.171542167663574 9.85669994354248 -108.29859924316406 36.110877990722656 40.56325912475586 148.5214080810547 60.30021667480469 174.2580108642578 -176.33509826660156 -9.228633880615234 42.10213851928711 -16.23428726196289 -69.51470184326172 -0.2811272442340851 24.16935920715332 2.395305633544922 -69.42488098144531 62.65106964111328 53.67209243774414 93.10160827636719 -85.67805480957031 57.640933990478516 98.40998077392578
